<?xml version="1.0" encoding="UTF-8" standalone="no"?>
<!DOCTYPE svg PUBLIC "-//W3C//DTD SVG 1.1//EN"
 "http://www.w3.org/Graphics/SVG/1.1/DTD/svg11.dtd">
<!-- Generated by graphviz version 14.1.3 (20260303.0454)
 -->
<!-- Title: BioPsychoSoziosphaere Pages: 1 -->
<svg width="748pt" height="494pt"
 viewBox="0.00 0.00 748.00 494.00" xmlns="http://www.w3.org/2000/svg" xmlns:xlink="http://www.w3.org/1999/xlink">
<g id="graph0" class="graph" transform="scale(1 1) rotate(0) translate(18 476.4)">
<title>BioPsychoSoziosphaere</title>
<polygon fill="white" stroke="none" points="-18,18 -18,-476.4 730,-476.4 730,18 -18,18"/>
<g id="clust1" class="cluster">
<title>cluster_bio_psycho_soziosphaere</title>
<path fill="white" stroke="#355c7d" stroke-width="2.2" d="M20,-8C20,-8 692,-8 692,-8 698,-8 704,-14 704,-20 704,-20 704,-438.4 704,-438.4 704,-444.4 698,-450.4 692,-450.4 692,-450.4 20,-450.4 20,-450.4 14,-450.4 8,-444.4 8,-438.4 8,-438.4 8,-20 8,-20 8,-14 14,-8 20,-8"/>
<text xml:space="preserve" text-anchor="middle" x="356" y="-426.6" font-family="Arial Bold" font-size="22.00">Bio&#45;Psycho&#45;Soziosphäre</text>
</g>
<!-- rahmenflaeche -->
</g>
</svg>
